<?xml version="1.0" encoding="iso-8859-1"?><!-- Generator: Adobe Illustrator 19.1.1, SVG Export Plug-In . SVG Version: 6.00 Build 0)  --><svg xmlns="http://www.w3.org/2000/svg" xmlns:xlink="http://www.w3.org/1999/xlink" viewBox="0 0 50 50" width="100px" height="100px"><path d="M32.761,39.454c-2.708,2.191-5.475,3.919-7.751,4.828C24.911,43.117,26.28,42,26.28,42l3.156-3.338c-1.432-0.409-2.888-0.908-4.346-1.483C23.511,39.173,20.27,43,18.667,43c-1.091,0-1.657-0.603-1.667-1.508c-0.02-1.843,1.71-4.933,2.824-6.729c-1.313-0.69-2.605-1.436-3.86-2.233c-1.181,1.991-3.427,5.37-5.128,5.465c-0.291,0.016-0.564-0.068-0.813-0.276c-2.254-1.888-0.266-6.466,0.969-8.798c-0.943-0.782-1.841-1.592-2.685-2.428C7.515,29.157,6.188,33,5.125,33c-0.008,0-0.013-0.003-0.021-0.003C5.041,32.666,5,32.334,5,32c0-3.302,0.317-6.155,0.694-8.392c-0.587-0.734-1.127-1.483-1.619-2.243C3.545,23.871,3,27.526,3,32c0,8.251,14.345,15,19,15c3.259,0,8.514-2.849,13.409-7.145C34.549,39.765,33.664,39.628,32.761,39.454z"/><path style="fill:none;stroke:#000000;stroke-width:2;stroke-linecap:round;stroke-linejoin:round;stroke-miterlimit:10;" d="M28.04,12c-0.648-0.25-2.047-1-2.047-1c-4.758-2.5-3.901-5.308-3.901-5.308s-0.036-2.806,4.159-1.244c0,0,1.292,0.426,2.75,1.551c3.96,0,11,2,11,10c0.015,0.952-0.5,2-3,2c-6.75,0-10-6.625-10-9.938"/><path d="M40.958,15.214C40.972,15.476,41,15.726,41,16c0.012,0.773-0.247,1.459-0.749,1.969C39.568,18.663,38.504,19,37,19c-4.82,0-8.061-3.038-9.712-6.233c-0.707-0.319-1.644-0.819-1.768-0.885c-4.828-2.537-4.57-5.58-4.424-6.318c0.014-0.213,0.073-0.618,0.277-1.048C18.942,4.034,17.098,4.001,17,4C5.572,4,3,9.924,3,12c0,13.152,22.146,26,34.984,26c0.007,0,0.02,0,0.04,0c0.442,0,4.041-0.079,6.567-2.566C46.189,33.86,47,31.696,47,28.986C46.996,28.664,46.821,21.074,40.958,15.214z"/></svg>