<svg xmlns="http://www.w3.org/2000/svg" viewBox="0 0 1332 861" preserveAspectRatio="xMidYMid" width="1332" height="861" xmlns:xlink="http://www.w3.org/1999/xlink" style="shape-rendering:auto;display:block;background-position-x:0%;background-position-y:0%;background-size:auto;background-origin:padding-box;background-clip:border-box;background:scroll rgb(255, 255, 255) none  repeat;width:1332px;height:861px;;animation:none"><g><defs><g id="id1"><circle stroke-width="2" stroke="#7ac143" fill="#ffffff" r="10" cy="0" cx="0" style="fill:rgb(255, 255, 255);stroke:rgb(122, 193, 67);;animation:none"></circle>

  
<path stroke-width="2" stroke="#7ac143" fill="none" d="M-6.00 0.00 A6 6 0 0 1 -1.17 -5.88" style="fill:none;stroke:rgb(122, 193, 67);;animation:none"></path></g>
<g id="id2"><circle stroke-width="2" stroke="#7ac143" fill="#ffffff" r="20" cy="0" cx="0" style="fill:rgb(255, 255, 255);stroke:rgb(122, 193, 67);;animation:none"></circle></g>
<g id="id3"><circle stroke-width="2" stroke="#7ac143" fill="#ffffff" r="30" cy="0" cx="0" style="fill:rgb(255, 255, 255);stroke:rgb(122, 193, 67);;animation:none"></circle>

  
<path stroke-width="2" stroke="#7ac143" fill="none" d="M-20.91 -9.75 A23.071796769724493 23.071796769724493 0 0 1 -3.51 -22.80" style="fill:none;stroke:rgb(122, 193, 67);;animation:none"></path></g>
<g id="id4"><circle stroke-width="2" stroke="#7ac143" fill="#ffffff" r="40" cy="0" cx="0" style="fill:rgb(255, 255, 255);stroke:rgb(122, 193, 67);;animation:none"></circle>

  
<path stroke-width="2" stroke="#7ac143" fill="none" d="M-25.39 -19.48 A32 32 0 0 1 -4.18 -31.73" style="fill:none;stroke:rgb(122, 193, 67);;animation:none"></path></g></defs>
<g transform="matrix(1,0,0,1,463.29998779296875,784.606201171875)" style="transform:matrix(1, 0, 0, 1, 463.3, 784.606);;animation:none"><use href="#id1"></use></g>
<g transform="matrix(1,0,0,1,701.5999755859375,624.0999755859375)" style="transform:matrix(1, 0, 0, 1, 701.6, 624.1);;animation:none"><use href="#id1"></use></g>
<g transform="matrix(1,0,0,1,966.2999877929688,763.9879760742188)" style="transform:matrix(1, 0, 0, 1, 966.3, 763.988);;animation:none"><use href="#id1"></use></g>
<g transform="matrix(1,0,0,1,1195,792.6289672851562)" style="transform:matrix(1, 0, 0, 1, 1195, 792.629);;animation:none"><use href="#id4"></use></g>
<g transform="matrix(1,0,0,1,985.5,637.300048828125)" style="transform:matrix(1, 0, 0, 1, 985.5, 637.3);;animation:none"><use href="#id1"></use></g>
<g transform="matrix(1,0,0,1,607.0999755859375,136.9730224609375)" style="transform:matrix(1, 0, 0, 1, 607.1, 136.973);;animation:none"><use href="#id2"></use></g>
<g transform="matrix(1,0,0,1,1240.4000244140625,697.3800048828125)" style="transform:matrix(1, 0, 0, 1, 1240.4, 697.38);;animation:none"><use href="#id1"></use></g>
<g transform="matrix(1,0,0,1,420.8999938964844,452.7300109863281)" style="transform:matrix(1, 0, 0, 1, 420.9, 452.73);;animation:none"><use href="#id1"></use></g>
<g transform="matrix(1,0,0,1,461.8999938964844,486.9849853515625)" style="transform:matrix(1, 0, 0, 1, 461.9, 486.985);;animation:none"><use href="#id1"></use></g>
<g transform="matrix(1,0,0,1,645.2000122070312,483.25201416015625)" style="transform:matrix(1, 0, 0, 1, 645.2, 483.252);;animation:none"><use href="#id1"></use></g>
<g transform="matrix(1,0,0,1,-4.5,833.9940185546875)" style="transform:matrix(1, 0, 0, 1, -4.5, 833.994);;animation:none"><use href="#id1"></use></g>
<g transform="matrix(1,0,0,1,88,181.69500732421875)" style="transform:matrix(1, 0, 0, 1, 88, 181.695);;animation:none"><use href="#id3"></use></g>
<g transform="matrix(1,0,0,1,1172.699951171875,35.5560302734375)" style="transform:matrix(1, 0, 0, 1, 1172.7, 35.556);;animation:none"><use href="#id1"></use></g>
<g transform="matrix(1,0,0,1,1267.0999755859375,699.239990234375)" style="transform:matrix(1, 0, 0, 1, 1267.1, 699.24);;animation:none"><use href="#id1"></use></g>
<g transform="matrix(1,0,0,1,1005.5999755859375,150.50799560546875)" style="transform:matrix(1, 0, 0, 1, 1005.6, 150.508);;animation:none"><use href="#id2"></use></g>
<g transform="matrix(1,0,0,1,691.9000244140625,184.6920166015625)" style="transform:matrix(1, 0, 0, 1, 691.9, 184.692);;animation:none"><use href="#id4"></use></g>
<g transform="matrix(1,0,0,1,280.5,203)" style="transform:matrix(1, 0, 0, 1, 280.5, 203);;animation:none"><use href="#id2"></use></g>
<g transform="matrix(1,0,0,1,996.7999877929688,649.1400146484375)" style="transform:matrix(1, 0, 0, 1, 996.8, 649.14);;animation:none"><use href="#id1"></use></g>
<g transform="matrix(1,0,0,1,281.8999938964844,592.7160034179688)" style="transform:matrix(1, 0, 0, 1, 281.9, 592.716);;animation:none"><use href="#id1"></use></g>
<g transform="matrix(1,0,0,1,390.20001220703125,239.65203857421875)" style="transform:matrix(1, 0, 0, 1, 390.2, 239.652);;animation:none"><use href="#id1"></use></g>
<g transform="matrix(1,0,0,1,1110.5,618.4920043945312)" style="transform:matrix(1, 0, 0, 1, 1110.5, 618.492);;animation:none"><use href="#id1"></use></g>
<g transform="matrix(1,0,0,1,218.89999389648438,349.15802001953125)" style="transform:matrix(1, 0, 0, 1, 218.9, 349.158);;animation:none"><use href="#id1"></use></g>
<g transform="matrix(1,0,0,1,143.89999389648438,348.72601318359375)" style="transform:matrix(1, 0, 0, 1, 143.9, 348.726);;animation:none"><use href="#id1"></use></g>
<g transform="matrix(1,0,0,1,887.9000244140625,506.8268737792969)" style="transform:matrix(1, 0, 0, 1, 887.9, 506.827);;animation:none"><use href="#id1"></use></g>
<g transform="matrix(1,0,0,1,95.80000305175781,134.18511962890625)" style="transform:matrix(1, 0, 0, 1, 95.8, 134.185);;animation:none"><use href="#id1"></use></g>
<g transform="matrix(1,0,0,1,1043.4000244140625,845.7551879882812)" style="transform:matrix(1, 0, 0, 1, 1043.4, 845.755);;animation:none"><use href="#id2"></use></g>
<g transform="matrix(1,0,0,1,941.5,132.5164794921875)" style="transform:matrix(1, 0, 0, 1, 941.5, 132.516);;animation:none"><use href="#id4"></use></g>
<g transform="matrix(1,0,0,1,379.6000061035156,684.2537231445312)" style="transform:matrix(1, 0, 0, 1, 379.6, 684.254);;animation:none"><use href="#id2"></use></g>
<g transform="matrix(1,0,0,1,389.79998779296875,368.69549560546875)" style="transform:matrix(1, 0, 0, 1, 389.8, 368.695);;animation:none"><use href="#id3"></use></g>
<g transform="matrix(1,0,0,1,610.7000122070312,231.04925537109375)" style="transform:matrix(1, 0, 0, 1, 610.7, 231.049);;animation:none"><use href="#id4"></use></g>
<g transform="matrix(1,0,0,1,978.9000244140625,0.1253662109375)" style="transform:matrix(1, 0, 0, 1, 978.9, 0.125366);;animation:none"><use href="#id1"></use></g>
<g transform="matrix(1,0,0,1,378.6000061035156,423.5701599121094)" style="transform:matrix(1, 0, 0, 1, 378.6, 423.57);;animation:none"><use href="#id4"></use></g>
<g transform="matrix(1,0,0,1,311.5,189.20892333984375)" style="transform:matrix(1, 0, 0, 1, 311.5, 189.209);;animation:none"><use href="#id1"></use></g>
<g transform="matrix(1,0,0,1,1242.300048828125,770.4283447265625)" style="transform:matrix(1, 0, 0, 1, 1242.3, 770.428);;animation:none"><use href="#id4"></use></g>
<g transform="matrix(1,0,0,1,560,83.3194580078125)" style="transform:matrix(1, 0, 0, 1, 560, 83.3195);;animation:none"><use href="#id1"></use></g>
<g></g></g><!-- [ldio] generated by https://loading.io --></svg>